<?xml version="1.0" encoding="utf-8"?>
<!-- Generator: Adobe Illustrator 22.0.1, SVG Export Plug-In . SVG Version: 6.00 Build 0)  -->
<svg version="1.1" id="Layer_1" xmlns="http://www.w3.org/2000/svg" xmlns:xlink="http://www.w3.org/1999/xlink" x="0px" y="0px"
	 viewBox="0 0 332.8 385.8" style="enable-background:new 0 0 332.8 385.8;" xml:space="preserve">
<style type="text/css">
	.st0{fill:#124559;}
</style>
<g>
	<path class="st0" d="M322,361.7h-5.3c0-0.3,0-0.6,0-0.9v-249c0-8.3-6.8-15.1-15.1-15.1h-57.3c-8.3,0-15.1,6.8-15.1,15.1v249
		c0,0.3,0,0.6,0,0.9H210c0-0.3,0-0.6,0-0.9V150.6c0-8.3-6.8-15.1-15.1-15.1h-57.3c-8.3,0-15.1,6.8-15.1,15.1v210.2
		c0,0.3,0,0.6,0,0.9h-19.3c0-0.3,0-0.6,0-0.9V187.3c0-8.3-6.8-15.1-15.1-15.1H31.1c-8.3,0-15.1,6.8-15.1,15.1v173.5
		c0,0.3,0,0.6,0,0.9h-5.3c-4.4,0-8.1,3.6-8.1,8.1s3.6,8.1,8.1,8.1H322c4.4,0,8.1-3.6,8.1-8.1S326.4,361.7,322,361.7z M237.3,360.8
		v-249c0-3.9,3.2-7.1,7.1-7.1h57.3c3.9,0,7.1,3.2,7.1,7.1v249c0,0.3,0,0.6-0.1,0.9h-71.2C237.3,361.4,237.3,361.1,237.3,360.8z
		 M130.7,360.8V150.6c0-3.9,3.2-7.1,7.1-7.1H195c3.9,0,7.1,3.2,7.1,7.1v210.2c0,0.3,0,0.6-0.1,0.9h-71.2
		C130.7,361.4,130.7,361.1,130.7,360.8z M24.1,360.8V187.3c0-3.9,3.2-7.1,7.1-7.1h57.3c3.9,0,7.1,3.2,7.1,7.1v173.5
		c0,0.3,0,0.6-0.1,0.9H24.1C24.1,361.4,24.1,361.1,24.1,360.8z"/>
	<path class="st0" d="M76.9,127.6c-4.1,0-7.6-3.2-8-7.3c-0.4-4.4,2.9-8.3,7.3-8.7c1-0.1,23.6-2.4,54.7-13.5
		c28.8-10.3,71.5-30.6,110.8-68.7l5.3-5.2h-24.3c-4.4,0-8.1-3.6-8.1-8.1c0-4.4,3.6-8.1,8.1-8.1h43.7c4.4,0,8.1,3.6,8.1,8.1v43.7
		c0,4.4-3.6,8.1-8.1,8.1c-4.4,0-8.1-3.6-8.1-8.1V35.6l-5.1,5c-41.7,40.6-87,62-117.6,72.9c-33.3,11.8-57,14-58,14.1
		C77.4,127.5,77.1,127.6,76.9,127.6z"/>
</g>
</svg>
