<?xml version="1.0" encoding="utf-8"?>
<!-- Generator: Adobe Illustrator 22.0.1, SVG Export Plug-In . SVG Version: 6.00 Build 0)  -->
<svg version="1.1" id="Layer_1" xmlns="http://www.w3.org/2000/svg" xmlns:xlink="http://www.w3.org/1999/xlink" x="0px" y="0px"
	 viewBox="0 0 388.6 385.8" style="enable-background:new 0 0 388.6 385.8;" xml:space="preserve">
<style type="text/css">
	.st0{fill:#124559;}
	.st1{fill:#FFEE6E;}
	.st2{fill:#FDBF00;}
	.st3{fill:#06CCAB;}
	.st4{fill:#1CADB5;}
	.st5{fill:#FF5B5B;}
	.st6{fill:#FF193D;}
	.st7{fill:#1B3B6B;}
	.st8{fill:#001035;}
	.st9{fill:#12254C;}
</style>
<g>
	<path class="st0" d="M265.2,197.8c2.5,0,4.5-2,4.5-4.5c0-2.5-2-4.5-4.5-4.5h-42.4c-12.3,0-22.2-10-22.2-22.2
		c0-12.3,10-22.2,22.2-22.2c1,0,2.1,0.1,3.2,0.2c2.2,0.3,4.3-1,4.9-3.1c4.9-14.8,18.6-24.7,34.2-24.7c12.5,0,24,6.4,30.6,17.1
		c1.1,1.7,3.1,2.5,5,2c2.3-0.6,4.7-0.9,7-0.9c14.9,0,27,12.1,27,27c0,4.9-1.3,9.7-3.8,13.8c-1.3,2.1-0.6,4.9,1.6,6.2
		c2.1,1.3,4.9,0.6,6.2-1.6c3.3-5.6,5.1-12,5.1-18.5c0-19.9-16.2-36-36-36c-2.1,0-4.1,0.2-6.2,0.5c-8.5-11.7-21.9-18.6-36.5-18.6
		c-0.3,0-0.7,0-1,0c-6.4-12.5-19.2-20.5-33.5-20.5c-20.7,0-37.6,16.9-37.6,37.6c0,7.5,2.2,14.8,6.4,20.9c-4.9,5.5-7.9,12.8-7.9,20.8
		c0,17.3,14,31.3,31.3,31.3L265.2,197.8L265.2,197.8z M230.7,96.2c9.7,0,18.5,4.8,23.8,12.7c-13.7,3.3-25.2,13-30.8,26.3
		c-6.3-0.2-12.2,1.6-17.2,4.6c-2.8-4.5-4.3-9.7-4.3-15.1C202.2,109,215,96.2,230.7,96.2L230.7,96.2z"/>
	<path class="st0" d="M302.5,230.1C302.4,230.1,302.4,230.1,302.5,230.1c-5.3,0.1-10.9,0.1-15.3,0.1c0,0,0,0,0,0
		c2.6-3.5,6.5-8.7,11.9-16.5c2.9-4.2,4.8-8.1,5.6-11.7c0-0.1,0.1-0.3,0.1-0.5l0.2-1.8c0-0.2,0-0.4,0-0.6c0-9.1-7.4-16.4-16.4-16.4
		c-7.8,0-14.6,5.6-16.1,13.2c-0.5,2.5,1.1,4.8,3.6,5.3c2.5,0.5,4.8-1.1,5.3-3.6c0.7-3.4,3.7-5.9,7.2-5.9c4,0,7.2,3.2,7.4,7.1
		l-0.2,1.2c-0.6,2.4-2,5.2-4.2,8.3c-7.4,10.5-11.8,16.3-14.1,19.4c-2.9,3.8-4,5.3-3.2,7.8c0.5,1.5,1.6,2.6,3.1,3.1
		c0.6,0.2,1.3,0.4,10.2,0.4c3.5,0,8.3,0,14.9-0.1c2.5,0,4.5-2.1,4.5-4.6C307,232.1,304.9,230.1,302.5,230.1L302.5,230.1z"/>
	<path class="st0" d="M345.1,199.8c0-9.1-7.4-16.4-16.4-16.4c-7.8,0-14.6,5.6-16.1,13.2c-0.5,2.5,1.1,4.8,3.6,5.3
		c2.5,0.5,4.8-1.1,5.3-3.6c0.7-3.4,3.7-5.9,7.2-5.9c4.1,0,7.4,3.3,7.4,7.4s-3.3,7.4-7.4,7.4c-2.5,0-4.5,2-4.5,4.5
		c0,2.5,2,4.5,4.5,4.5c4.1,0,7.4,3.3,7.4,7.4s-3.3,7.4-7.4,7.4c-3.7,0-6.8-2.7-7.3-6.3c0-0.3-0.1-0.7-0.1-1c0-2.5-2-4.5-4.5-4.5
		s-4.5,2-4.5,4.5c0,0.8,0.1,1.5,0.2,2.3c1.1,8.1,8.1,14.1,16.3,14.1c9.1,0,16.4-7.4,16.4-16.4c0-4.7-2-8.9-5.1-11.9
		C343.1,208.7,345.1,204.5,345.1,199.8z"/>
	<path class="st0" d="M160.5,220.1H216c2.5,0,4.5-2,4.5-4.5c0-2.5-2-4.5-4.5-4.5h-55.5c-2.5,0-4.5,2-4.5,4.5
		C156,218.1,158,220.1,160.5,220.1z"/>
	<path class="st0" d="M216,229.5h-29.7c-2.5,0-4.5,2-4.5,4.5c0,2.5,2,4.5,4.5,4.5H216c2.5,0,4.5-2,4.5-4.5
		C220.5,231.6,218.5,229.5,216,229.5z"/>
</g>
<g>
	<g>
		<path class="st0" d="M31.8,154.5v-10.8c0-10.3,8.4-18.7,18.7-18.7h10.8v5.8H50.5c-7.1,0-12.9,5.8-12.9,12.9v10.8H31.8z"/>
	</g>
</g>
<path class="st0" d="M85.5,379.9c-2.7,0-4.8-2.2-4.8-4.8c0-2.7,2.2-4.8,4.8-4.8h27.3v-37.6H30.9c-11.4,0-20.7-9.3-20.7-20.7V122.5
	c0-11.4,9.3-20.7,20.7-20.7h89.8v-74c0-11.4,9.3-20.7,20.7-20.7h220.9c11.4,0,20.7,9.3,20.7,20.7v220.9c0,11.4-9.3,20.7-20.7,20.7
	h-42.4v42.4c0,11.4-9.3,20.7-20.7,20.7h-81.9v37.6h24.9c2.7,0,4.8,2.2,4.8,4.8c0,2.7-2.2,4.8-4.8,4.8H85.5z M122.6,370.1h84.9v-37.6
	h-84.9V370.1z M20,311.8c0,6,4.9,10.9,10.9,10.9h268.2c6,0,10.9-4.9,10.9-10.9v-42.4H141.4c-11.4,0-20.7-9.3-20.7-20.7V111.6H30.9
	c-6,0-10.9,4.9-10.9,10.9v165.4h147.2c1.4,0,2.5,1.1,2.5,2.5s-1.1,2.5-2.5,2.5H20V311.8z M130.5,248.7c0,6,4.9,10.9,10.9,10.9h220.9
	c6,0,10.9-4.9,10.9-10.9V27.8c0-6-4.9-10.9-10.9-10.9H141.4c-6,0-10.9,4.9-10.9,10.9v40.8h205.4c1.4,0,2.5,1.1,2.5,2.5
	s-1.1,2.5-2.5,2.5H130.5V248.7z"/>
<circle class="st0" cx="162.1" cy="42.7" r="8.1"/>
<circle class="st0" cx="186.1" cy="42.7" r="8.1"/>
<circle class="st0" cx="210.3" cy="42.7" r="8.1"/>
</svg>
