<?xml version="1.0" encoding="utf-8"?>
<!-- Generator: Adobe Illustrator 22.0.1, SVG Export Plug-In . SVG Version: 6.00 Build 0)  -->
<svg version="1.1" id="Layer_1" xmlns="http://www.w3.org/2000/svg" xmlns:xlink="http://www.w3.org/1999/xlink" x="0px" y="0px"
	 viewBox="0 0 396.8 396.8" style="enable-background:new 0 0 396.8 396.8;" xml:space="preserve">
<style type="text/css">
	.st0{fill:#124559;}
	.st1{fill:#FFEE6E;}
	.st2{fill:#FDBF00;}
	.st3{fill:#06CCAB;}
	.st4{fill:#1CADB5;}
	.st5{fill:#FF5B5B;}
	.st6{fill:#FF193D;}
	.st7{fill:#1B3B6B;}
	.st8{fill:#001035;}
	.st9{fill:#12254C;}
</style>
<g>
	<path class="st0" d="M196.3,375c-1.5,0-2.8-0.6-3.9-1.6l-69.6-69.6c-0.9-0.9-1.4-2-1.6-3.2l-9.4-72.8l-50.5-50.5
		C39.7,155.7,23,128.9,13,99.9C3,70.9-0.2,39.4,3.5,9c0.3-2.5,2.3-4.5,4.8-4.8c8.1-1,16.4-1.5,24.7-1.5c22.7,0,44.9,3.7,66.2,11
		c29,10,55.8,26.7,77.5,48.4l50.5,50.5L300,122c1.2,0.2,2.3,0.7,3.2,1.6l69.6,69.6c1,1,1.6,2.4,1.6,3.9c0,0.6-0.1,1.1-0.2,1.6
		c-0.6,2-2.2,3.4-4.3,3.8l-53.2,9.9l-12.7,12.7l24.4,13.2c1.5,0.8,2.6,2.3,2.8,4c0,0.3,0.1,0.5,0.1,0.8c0,1.5-0.6,2.9-1.6,3.9
		l-83.4,83.4c-1,1-2.4,1.6-3.9,1.6l0,0c-0.3,0-0.5,0-0.8-0.1c-1.7-0.2-3.2-1.3-4-2.8l-13.2-24.4l-12.7,12.7l-9.9,53.2
		c-0.4,2-1.8,3.6-3.8,4.2C197.4,374.9,196.8,375,196.3,375z M131.9,297.4l60.8,60.8l7.7-41.8l-75.9-75.9L131.9,297.4z M232.3,296.5
		l11.2,20.8l73-73L295.8,233L232.3,296.5z M95.2,26.4c-3.4,17.3-11.7,33-24.1,45.4C58.7,84.2,43,92.6,25.7,95.9l-2.3,0.4l0.8,2.2
		c9.5,26.6,25.1,51.1,45,71l137.3,137.3l99.7-99.7L168.9,69.9c-19.9-19.9-44.5-35.4-71-45l-2.2-0.8L95.2,26.4z M315.8,201.2
		l41.8-7.7l-60.8-60.8l-56.8-7.3L315.8,201.2z M33,13.7c-5.8,0-11.6,0.3-17.4,0.8l-1.7,0.2l-0.2,1.7c-2.1,22.7-0.1,45.5,5.9,67.7
		l0.5,1.8l1.8-0.3C37.7,82.8,52,75.4,63.3,64c11.3-11.3,18.7-25.6,21.4-41.4l0.3-1.8l-1.8-0.5C66.9,15.9,50,13.7,33,13.7z"/>
	<path class="st0" d="M131.6,175.8c-11.6,0-22.6-4.5-30.8-12.7c-17-17-17-44.6,0-61.5c8.2-8.2,19.1-12.7,30.8-12.7
		c11.6,0,22.6,4.5,30.8,12.7c8.2,8.2,12.7,19.1,12.7,30.8c0,11.6-4.5,22.6-12.7,30.8C154.2,171.3,143.3,175.8,131.6,175.8z
		 M131.6,99.8c-8.7,0-16.9,3.4-23,9.5c-6.1,6.1-9.5,14.3-9.5,23c0,8.7,3.4,16.9,9.5,23c6.1,6.1,14.3,9.5,23,9.5
		c8.7,0,16.9-3.4,23-9.5c12.7-12.7,12.7-33.3,0-46C148.5,103.2,140.3,99.8,131.6,99.8z"/>
	<path class="st0" d="M299.2,298.5c-2.9,2.9-2.9,7.7,0,10.6l64.3,64.3c2.9,2.9,7.7,2.9,10.6,0c1.5-1.5,2.2-3.4,2.2-5.3
		s-0.7-3.8-2.2-5.3l-64.3-64.3C306.8,295.5,302.1,295.5,299.2,298.5z"/>
	<path class="st0" d="M368.8,373.6c-1.5,0-2.9-0.6-3.9-1.6l-64.3-64.3c-2.1-2.1-2.1-5.6,0-7.8c1-1,2.4-1.6,3.9-1.6
		c1.5,0,2.9,0.6,3.9,1.6l64.3,64.3c1,1,1.6,2.4,1.6,3.9c0,1.5-0.6,2.9-1.6,3.9C371.7,373,370.3,373.6,368.8,373.6z"/>
	<path class="st0" d="M362,312.1c-1.4,0.3-2.9,0.1-4.1-0.7l-34.7-21.9c-2.6-1.6-3.3-5-1.7-7.6c0.8-1.2,2-2.1,3.4-2.4
		c1.4-0.3,2.9-0.1,4.1,0.7l34.7,21.9c1.2,0.8,2.1,2,2.4,3.4c0.3,1.4,0.1,2.9-0.7,4.1C364.7,310.9,363.5,311.7,362,312.1z"/>
	<path class="st0" d="M366.5,320.8C367,320.6,366.1,321,366.5,320.8L366.5,320.8z"/>
	<path class="st0" d="M366.5,320.8C367,320.6,366.1,321,366.5,320.8L366.5,320.8z"/>
</g>
<path class="st0" d="M305.2,365c-1.4-0.4-2.7-1.3-3.4-2.6l-21.1-35.6c-1.6-2.6-0.7-6,2-7.5c1.3-0.7,2.8-0.9,4.2-0.5
	c1.4,0.4,2.7,1.3,3.4,2.6l21.1,35.6c0.8,1.3,1,2.8,0.6,4.2c-0.4,1.4-1.3,2.6-2.6,3.3C308.2,365.2,306.7,365.3,305.2,365z"/>
</svg>
