<?xml version="1.0" encoding="utf-8"?>
<!-- Generator: Adobe Illustrator 22.0.1, SVG Export Plug-In . SVG Version: 6.00 Build 0)  -->
<svg version="1.1" id="Layer_1" xmlns="http://www.w3.org/2000/svg" xmlns:xlink="http://www.w3.org/1999/xlink" x="0px" y="0px"
	 viewBox="0 0 530.2 377.8" style="enable-background:new 0 0 530.2 377.8;" xml:space="preserve">
<style type="text/css">
	.st0{fill:#124559;}
	.st1{fill:#FFEE6E;}
	.st2{fill:#FDBF00;}
	.st3{fill:#06CCAB;}
	.st4{fill:#1CADB5;}
	.st5{fill:#FF5B5B;}
	.st6{fill:#FF193D;}
	.st7{fill:#1B3B6B;}
	.st8{fill:#001035;}
	.st9{fill:#12254C;}
</style>
<g>
	<g>
		<g>
			<path class="st0" d="M406.3,364.5c-63.1,0-114.5-51.4-114.5-114.5v-26.8h-53.5v26.8c0,63.1-51.4,114.5-114.5,114.5
				c-63.1,0-114.5-51.4-114.5-114.5c0-17.2,3.7-33.8,11.1-49.2c2.1-4.4,13.7-23.5,26-43.6c8.6-14.1,17.6-28.7,24.9-41.1
				c0.9-1.5,2.5-2.4,4.2-2.4c0.9,0,1.7,0.2,2.5,0.7c1.1,0.7,1.9,1.7,2.2,3c0.3,1.3,0.1,2.6-0.5,3.7l-19.6,32.8l11.6-5.9
				c16.2-8.2,33.6-12.4,51.8-12.4c19.9,0,39.5,5.2,56.7,15.1c16.7,9.6,30.8,23.3,40.9,39.7l7,11.4v-98.9c0-35.1-28.5-63.6-63.6-63.6
				c-22.2,0-42.5,11.3-54.2,30.3c-0.5,0.8-5.7,9.5-15,25.1c-0.9,1.5-2.5,2.4-4.2,2.4c-0.9,0-1.7-0.2-2.5-0.7
				c-2.3-1.4-3.1-4.4-1.7-6.7c14.3-24.1,14.9-24.9,15.1-25.2c13.5-21.9,36.9-35,62.5-35c3.6,0,7.2,0.3,10.8,0.8l2.5,0.4l1.3-2.1
				c5.9-9.5,16-15.2,27.1-15.2c17.5,0,31.8,14.3,31.8,31.8V111h53.5V45.1c0-17.5,14.3-31.8,31.8-31.8c11,0,21,5.5,26.9,14.9l0.9,2.5
				l3-0.4c3.6-0.5,7.2-0.8,10.8-0.8c25.7,0,49,13.1,62.5,35c4.1,6.6,78,128.5,81.3,135.2c7.8,15.8,11.7,32.8,11.7,50.5
				C520.8,313.2,469.4,364.5,406.3,364.5z M406.3,145.4c-57.7,0-104.6,46.9-104.6,104.6s46.9,104.6,104.6,104.6
				C464,354.7,511,307.8,511,250S464,145.4,406.3,145.4z M123.9,145.4c-57.7,0-104.6,46.9-104.6,104.6s46.9,104.6,104.6,104.6
				c57.7,0,104.6-46.9,104.6-104.6S181.6,145.4,123.9,145.4z M238.4,213.4h53.5v-23.5h-53.5V213.4z M365.3,39.2
				c-35.1,0-63.6,28.5-63.6,63.6l0,98.9l7-11.4c10.1-16.4,24.2-30.2,40.9-39.7c17.2-9.9,36.8-15.1,56.8-15.1
				c18.2,0,35.7,4.2,51.8,12.4l11.6,5.9l-6.7-11.2c-15.8-26.5-42.5-71.2-43.7-73.2C407.7,50.6,387.5,39.2,365.3,39.2z M238.4,180
				h53.5v-59.2h-53.5V180z M323.6,23.1c-12.1,0-22,9.9-22,22v19.6l6.7-8.2C316,47.1,326,39.6,337.2,35l5.5-2.3l-4.4-4
				C334.3,25.1,329.1,23.1,323.6,23.1z M206.6,23.1c-5.4,0-10.6,2-14.6,5.6l-4.4,4L193,35c11.2,4.6,21.1,12.1,28.8,21.5l6.7,8.2
				V45.1C228.6,33,218.7,23.1,206.6,23.1z"/>
		</g>
	</g>
	<g>
		<g>
			<path class="st0" d="M123.9,336.4c-46.8,0-84.8-38.1-84.8-84.8c0-46.8,38.1-84.8,84.8-84.8s84.8,38.1,84.8,84.8
				C208.7,298.4,170.7,336.4,123.9,336.4z M123.9,177.6c-40.8,0-74,33.2-74,74c0,40.8,33.2,74,74,74c40.8,0,74-33.2,74-74
				C197.9,210.8,164.7,177.6,123.9,177.6z"/>
		</g>
	</g>
	<g>
		<g>
			<path class="st0" d="M406.3,336.4c-46.8,0-84.8-38.1-84.8-84.8c0-46.8,38.1-84.8,84.8-84.8s84.8,38.1,84.8,84.8
				C491.1,298.4,453.1,336.4,406.3,336.4z M406.3,177.6c-40.8,0-74,33.2-74,74c0,40.8,33.2,74,74,74c40.8,0,74-33.2,74-74
				C480.3,210.8,447.1,177.6,406.3,177.6z"/>
		</g>
	</g>
</g>
</svg>
